# xmcd
#
# Track frame offsets:
#	150
#	11942
#	26660
#	36785
#	49127
#	60557
#	72615
#	80702
#	91160
#	105962
#	120262
#	133337
#	146185
#	156642
#	170850
#	181695
#
# Disc length: 2563 seconds
# Revision: 3
# Processed by: cddbd v1.5.2PL0 Copyright (c) Steve Scherf et al.
# Submitted via: dBpowerAMP V12.0
#
DISCID=e60a0110
DTITLE=J.B.Lenoir - Natural Man (+2)[Remaster]
DYEAR=1900
DGENRE=Blues
TTITLE0=Natural Man
TTITLE1=Don't Dog Your Woman
TTITLE2=Let Me Die With The One I Love
TTITLE3=Carrie Lee
TTITLE4=Mama,What About Your Daughter
TTITLE5=If I Give My Love To You
TTITLE6=Five Years
TTITLE7=Don't Touch My Head
TTITLE8=I've Been Down So Long
TTITLE9=What Have I Done
TTITLE10=Eisenhower Blues
TTITLE11=Korea Blues
TTITLE12=Everybody Wants To Know
TTITLE13=I'm In Korea
TTITLE14=She Don't Know
TTITLE15=Mama Talk To Your Daughter
EXTD=
EXTT0=
EXTT1=
EXTT2=
EXTT3=
EXTT4=
EXTT5=
EXTT6=
EXTT7=
EXTT8=
EXTT9=
EXTT10=
EXTT11=
EXTT12=
EXTT13=
EXTT14=
EXTT15=
PLAYORDER=
